<svg width="1400" height="805" viewBox="0 0 1400 805" fill="none" xmlns="http://www.w3.org/2000/svg">
<g filter="url(#filter0_f_312_4878)">
<path d="M78.4517 582.5C-122.533 498.316 -253 607.868 -253 607.868V484.5C-253 484.5 -70.5483 360.881 78.4517 426.5C243.847 499.34 313.5 535.5 477 501.5C640.5 467.5 758.078 343.5 857 343.5C992 343.5 1089.38 386.65 1168.45 371C1264.45 352 1364.45 149 1364.45 149V318C1364.45 318 1292.21 464.6 1193.5 501.5C1086.5 541.5 973 484.5 875.5 501.5C778 518.5 669 594.133 477 639C307.755 678.549 200.65 633.686 80.0657 583.176L78.4517 582.5Z" fill="url(#paint0_linear_312_4878)" fill-opacity="0.35"/>
</g>
<defs>
<filter id="filter0_f_312_4878" x="-403" y="-1" width="1917.45" height="805.125" filterUnits="userSpaceOnUse" color-interpolation-filters="sRGB">
<feFlood flood-opacity="0" result="BackgroundImageFix"/>
<feBlend mode="normal" in="SourceGraphic" in2="BackgroundImageFix" result="shape"/>
<feGaussianBlur stdDeviation="75" result="effect1_foregroundBlur_312_4878"/>
</filter>
<linearGradient id="paint0_linear_312_4878" x1="34.8326" y1="587.637" x2="1142.85" y2="470.68" gradientUnits="userSpaceOnUse">
<stop stop-color="#2E64FF"/>
<stop offset="0.489583" stop-color="#31B0FF"/>
<stop offset="1" stop-color="#02E1FF"/>
</linearGradient>
</defs>
</svg>
