<svg width="32" height="32" viewBox="0 0 32 32" fill="none" xmlns="http://www.w3.org/2000/svg">
<g clip-path="url(#clip0_1256_2372)">
<g clip-path="url(#clip1_1256_2372)">
<circle cx="16" cy="16" r="16" fill="url(#paint0_linear_1256_2372)"/>
<path d="M23.8411 7.14099H8.25895C7.40752 7.14099 6.6636 7.75362 6.6636 8.59506V24.2118C6.6636 25.0578 7.40752 25.8117 8.25895 25.8117H23.8365C24.6925 25.8117 25.3343 25.0528 25.3343 24.2118V8.59506C25.3393 7.75362 24.6925 7.14099 23.8411 7.14099ZM12.4511 22.704H9.77637V14.3876H12.4511V22.704ZM11.2063 13.1231H11.1871C10.3311 13.1231 9.77678 12.4859 9.77678 11.6882C9.77678 10.876 10.3457 10.2538 11.2208 10.2538C12.096 10.2538 12.6316 10.8714 12.6507 11.6882C12.6503 12.4859 12.096 13.1231 11.2063 13.1231ZM22.2266 22.704H19.5518V18.1567C19.5518 17.0673 19.1626 16.323 18.1949 16.323C17.4555 16.323 17.0179 16.8231 16.8233 17.3103C16.7504 17.4853 16.7308 17.7237 16.7308 17.9671V22.704H14.056V14.3876H16.7308V15.5449C17.12 14.9906 17.7281 14.1929 19.143 14.1929C20.8988 14.1929 22.227 15.3503 22.227 17.8454L22.2266 22.704Z" fill="#ECEDED"/>
</g>
</g>
<defs>
<linearGradient id="paint0_linear_1256_2372" x1="1.12364" y1="29.2727" x2="30.1562" y2="28.3574" gradientUnits="userSpaceOnUse">
<stop stop-color="#2E64FF"/>
<stop offset="0.489583" stop-color="#25A9FB"/>
<stop offset="1" stop-color="#02E1FF"/>
</linearGradient>
<clipPath id="clip0_1256_2372">
<rect width="32" height="32" fill="white"/>
</clipPath>
<clipPath id="clip1_1256_2372">
<rect width="32" height="32" fill="white"/>
</clipPath>
</defs>
</svg>
