<svg width="29" height="28" viewBox="0 0 29 28" fill="none" xmlns="http://www.w3.org/2000/svg">
<path d="M11.4733 19.253H8.37428C6.9817 19.253 5.64615 18.6998 4.66144 17.7151C3.67674 16.7303 3.12354 15.3948 3.12354 14.0022C3.12354 12.6096 3.67674 11.2741 4.66144 10.2894C5.64615 9.30467 6.9817 8.75146 8.37428 8.75146H11.405" stroke="#ECEDED" stroke-width="2" stroke-linecap="round" stroke-linejoin="round"/>
<path d="M17.5933 8.75146H20.6239C22.0165 8.75146 23.3521 9.30467 24.3368 10.2894C25.3215 11.2741 25.8747 12.6096 25.8747 14.0022C25.8747 15.3948 25.3215 16.7303 24.3368 17.7151C23.3521 18.6998 22.0165 19.253 20.6239 19.253H17.5249" stroke="#ECEDED" stroke-width="2" stroke-linecap="round" stroke-linejoin="round"/>
<path d="M9.74634 14.001H19.3651" stroke="#ECEDED" stroke-width="2" stroke-linecap="round" stroke-linejoin="round"/>
</svg>
