<svg width="96" height="96" viewBox="0 0 96 96" fill="none" xmlns="http://www.w3.org/2000/svg">
<g clip-path="url(#clip0_1311_3344)">
<path d="M36 20H28C25.8783 20 23.8434 20.8429 22.3431 22.3431C20.8429 23.8434 20 25.8783 20 28V76C20 78.1217 20.8429 80.1566 22.3431 81.6569C23.8434 83.1571 25.8783 84 28 84H68C70.1217 84 72.1566 83.1571 73.6569 81.6569C75.1571 80.1566 76 78.1217 76 76V28C76 25.8783 75.1571 23.8434 73.6569 22.3431C72.1566 20.8429 70.1217 20 68 20H60" stroke="#1AD8F2" stroke-width="4" stroke-linecap="round" stroke-linejoin="round"/>
<path d="M36 20C36 17.8783 36.8429 15.8434 38.3431 14.3431C39.8434 12.8429 41.8783 12 44 12H52C54.1217 12 56.1566 12.8429 57.6569 14.3431C59.1571 15.8434 60 17.8783 60 20C60 22.1217 59.1571 24.1566 57.6569 25.6569C56.1566 27.1571 54.1217 28 52 28H44C41.8783 28 39.8434 27.1571 38.3431 25.6569C36.8429 24.1566 36 22.1217 36 20Z" stroke="#1AD8F2" stroke-width="4" stroke-linecap="round" stroke-linejoin="round"/>
<path d="M47.9722 67L58.9602 55.74C60.3194 54.3245 61.0784 52.4383 61.0784 50.476C61.0784 48.5136 60.3194 46.6274 58.9602 45.212C58.2977 44.5223 57.5026 43.9736 56.6228 43.5989C55.743 43.2241 54.7965 43.0309 53.8402 43.0309C52.8839 43.0309 51.9374 43.2241 51.0576 43.5989C50.1778 43.9736 49.3828 44.5223 48.7202 45.212L47.9882 45.964L47.2562 45.208C46.5937 44.5183 45.7986 43.9696 44.9188 43.5948C44.039 43.2201 43.0925 43.0269 42.1362 43.0269C41.1799 43.0269 40.2334 43.2201 39.3536 43.5948C38.4738 43.9696 37.6788 44.5183 37.0162 45.208C35.6561 46.6229 34.8965 48.5093 34.8965 50.472C34.8965 52.4346 35.6561 54.321 37.0162 55.736L47.9682 67.036L47.9722 67Z" fill="url(#paint0_linear_1311_3344)"/>
</g>
<defs>
<linearGradient id="paint0_linear_1311_3344" x1="35.8158" y1="64.9897" x2="59.5653" y2="64.1732" gradientUnits="userSpaceOnUse">
<stop stop-color="#2E64FF"/>
<stop offset="0.489583" stop-color="#25A9FB"/>
<stop offset="1" stop-color="#02E1FF"/>
</linearGradient>
<clipPath id="clip0_1311_3344">
<rect width="96" height="96" fill="white"/>
</clipPath>
</defs>
</svg>
