<svg width="32" height="32" viewBox="0 0 32 32" fill="none" xmlns="http://www.w3.org/2000/svg">
<g clip-path="url(#clip0_1256_2386)">
<circle cx="16" cy="16" r="16" fill="url(#paint0_linear_1256_2386)"/>
<path d="M26.6667 10.0806C25.8649 10.4285 25.017 10.6584 24.1493 10.7633C25.0647 10.2164 25.7507 9.35614 26.08 8.34197C25.2198 8.85404 24.2782 9.21482 23.296 9.40864C22.6395 8.69672 21.7653 8.22282 20.8105 8.06128C19.8556 7.89974 18.8742 8.05969 18.0201 8.51604C17.1659 8.9724 16.4874 9.69934 16.0909 10.5829C15.6945 11.4664 15.6025 12.4565 15.8293 13.398C14.0901 13.31 12.3887 12.8571 10.8359 12.0688C9.28307 11.2804 7.91345 10.1742 6.81601 8.82197C6.43109 9.49415 6.22883 10.2554 6.22934 11.03C6.22798 11.7493 6.40451 12.4578 6.74322 13.0924C7.08192 13.7271 7.5723 14.2681 8.17068 14.6673C7.47519 14.6484 6.79455 14.4618 6.18668 14.1233V14.1766C6.19189 15.1845 6.54507 16.1597 7.18648 16.9371C7.82789 17.7146 8.71815 18.2467 9.70668 18.4433C9.32615 18.5591 8.93108 18.6202 8.53334 18.6246C8.25803 18.6214 7.98339 18.5965 7.71201 18.55C7.99351 19.417 8.53827 20.1747 9.27049 20.7176C10.0027 21.2606 10.886 21.5618 11.7973 21.5793C10.2584 22.7903 8.35829 23.4512 6.40001 23.4566C6.04346 23.4578 5.68719 23.4364 5.33334 23.3926C7.33273 24.6836 9.66274 25.3689 12.0427 25.366C13.685 25.383 15.3143 25.0727 16.8353 24.453C18.3564 23.8333 19.7387 22.9168 20.9016 21.7569C22.0644 20.597 22.9845 19.2171 23.6081 17.6976C24.2316 16.1782 24.5462 14.5497 24.5333 12.9073V12.342C25.3704 11.7178 26.0923 10.9526 26.6667 10.0806Z" fill="#ECEDED"/>
</g>
<defs>
<linearGradient id="paint0_linear_1256_2386" x1="1.12364" y1="29.2727" x2="30.1562" y2="28.3574" gradientUnits="userSpaceOnUse">
<stop stop-color="#2E64FF"/>
<stop offset="0.489583" stop-color="#25A9FB"/>
<stop offset="1" stop-color="#02E1FF"/>
</linearGradient>
<clipPath id="clip0_1256_2386">
<rect width="32" height="32" fill="white"/>
</clipPath>
</defs>
</svg>
