<svg width="517" height="102" viewBox="0 0 517 102" fill="none" xmlns="http://www.w3.org/2000/svg">
<rect x="0.5" y="0.5" width="515.074" height="100.643" rx="4.5" stroke="#9747FF" stroke-dasharray="10 5"/>
<path fill-rule="evenodd" clip-rule="evenodd" d="M57.4803 27.4413C58.4844 26.6871 59.1339 25.4863 59.1339 24.1339C59.1339 21.8508 57.2831 20 55 20C52.7169 20 50.8662 21.8508 50.8662 24.1339C50.8662 25.4863 51.5156 26.687 52.5197 27.4412V28.2677H27.4413C26.6871 27.2636 25.4863 26.6142 24.1339 26.6142C21.8508 26.6142 20 28.465 20 30.748C20 33.0311 21.8508 34.8819 24.1339 34.8819C25.7202 34.8819 27.0978 33.9884 27.7909 32.6772H50.2484L40.5362 59.3612H30.4724V59.5198C30.1256 59.4254 29.7606 59.375 29.3839 59.375C27.1008 59.375 25.25 61.2258 25.25 63.5089C25.25 65.7919 27.1008 67.6427 29.3839 67.6427C30.5609 67.6427 31.6231 67.1507 32.376 66.3612H37.9884L35.6332 72.8319C34.1583 73.4633 33.125 74.9279 33.125 76.6339C33.125 78.9169 34.9758 80.7677 37.2589 80.7677C38.8587 80.7677 40.2464 79.8589 40.9335 78.5293L41 78.5535L45.4376 66.3612H52.5197V73.7399C51.5156 74.494 50.8662 75.6948 50.8662 77.0472C50.8662 79.3303 52.7169 81.1811 55 81.1811C57.2831 81.1811 59.1339 79.3303 59.1339 77.0472C59.1339 75.6948 58.4844 74.494 57.4803 73.7398V66.3612H63.9155L68.0346 77.6785L68.1272 77.6448C68.1989 79.8649 70.0213 81.6427 72.2588 81.6427C74.5419 81.6427 76.3927 79.7919 76.3927 77.5089C76.3927 75.875 75.4449 74.4626 74.0691 73.7914L71.3647 66.3612H77.0401C77.7757 67.0351 78.7558 67.4464 79.832 67.4464C82.115 67.4464 83.9658 65.5956 83.9658 63.3125C83.9658 61.0294 82.115 59.1786 79.832 59.1786C79.4078 59.1786 78.9985 59.2425 78.6133 59.3612H68.8169L59.1047 32.6772H82.2091C82.9022 33.9884 84.2798 34.8819 85.8661 34.8819C88.1492 34.8819 90 33.0311 90 30.748C90 28.465 88.1492 26.6142 85.8661 26.6142C84.5137 26.6142 83.3129 27.2636 82.5587 28.2677H57.4803V27.4413ZM57.4803 59.3612H61.3677L57.4803 48.6808V59.3612ZM52.5197 46.9034V59.3612H47.9854L52.5197 46.9034ZM399.088 37.5426C398.354 38.4326 397.243 39 396 39C393.791 39 392 37.2091 392 35C392 32.7909 393.791 31 396 31C397.73 31 399.204 32.0986 399.762 33.6364H425.238C425.796 32.0986 427.27 31 429 31C431.209 31 433 32.7909 433 35C433 37.2091 431.209 39 429 39C427.757 39 426.646 38.4326 425.912 37.5426H414.638V66.9928C415.473 67.7259 416 68.8014 416 70C416 72.2091 414.209 74 412 74C409.791 74 408 72.2091 408 70C408 68.4247 408.911 67.0621 410.234 66.4099V37.5426H399.088ZM132 73C134.209 73 136 71.2091 136 69C136 67.0352 134.583 65.4013 132.716 65.0639L130.857 60H132.535C133.227 61.1956 134.519 62 136 62C138.209 62 140 60.2091 140 58C140 55.7909 138.209 54 136 54C134.519 54 133.227 54.8044 132.535 56H129.388L121.387 34.2101C122.366 33.481 123 32.3146 123 31C123 28.7909 121.209 27 119 27C116.791 27 115 28.7909 115 31C115 32.2461 115.57 33.3592 116.463 34.0927L108.419 56H105.465C104.773 54.8044 103.481 54 102 54C99.7909 54 98 55.7909 98 58C98 60.2091 99.7909 62 102 62C103.481 62 104.773 61.1956 105.465 60H106.95L105.075 65.1075C103.312 65.525 102 67.1093 102 69C102 71.2091 103.791 73 106 73C108.209 73 110 71.2091 110 69C110 68.0599 109.676 67.1955 109.133 66.5127L111.445 60H126.362L128.736 66.6873C128.272 67.3402 128 68.1383 128 69C128 71.2091 129.791 73 132 73ZM124.869 55.7955L119.045 39.3892H118.761L112.937 55.7955H124.869ZM155.178 49.9006L158.942 48.8352C158.291 46.8939 157.191 45.3314 155.64 44.1477C154.101 42.964 151.982 42.3722 149.283 42.3722C147.366 42.3722 145.649 42.7095 144.134 43.3842C142.631 44.0589 141.441 44.9882 140.565 46.1719C139.701 47.3556 139.269 48.7169 139.269 50.2557C139.269 52.1378 139.849 53.7062 141.009 54.9609C142.181 56.2038 144.016 57.1212 146.513 57.7131L151.059 58.7784C152.432 59.098 153.45 59.5833 154.113 60.2344C154.776 60.8736 155.107 61.6667 155.107 62.6136C155.107 63.7855 154.527 64.7917 153.367 65.6321C152.219 66.4607 150.668 66.875 148.715 66.875C146.999 66.875 145.608 66.508 144.543 65.7741C143.489 65.0402 142.773 63.9394 142.394 62.4716L138.417 63.4659C138.902 65.786 140.056 67.5497 141.879 68.7571C143.702 69.9645 146.005 70.5682 148.786 70.5682C150.905 70.5682 152.763 70.2131 154.362 69.5028C155.96 68.7926 157.202 67.822 158.09 66.5909C158.99 65.3598 159.44 63.9631 159.44 62.4006C159.44 60.4948 158.842 58.9382 157.646 57.7308C156.451 56.5116 154.634 55.6061 152.195 55.0142L148.147 54.0199C146.537 53.6174 145.353 53.1143 144.596 52.5107C143.838 51.907 143.46 51.0843 143.46 50.0426C143.46 48.8707 144.01 47.906 145.111 47.1484C146.223 46.379 147.614 45.9943 149.283 45.9943C150.503 45.9943 151.503 46.1896 152.284 46.5803C153.065 46.9709 153.681 47.468 154.131 48.0717C154.592 48.6636 154.942 49.2732 155.178 49.9006ZM166.546 80.0497C167.103 80.1681 167.736 80.2273 168.446 80.2273C169.713 80.2273 170.849 80.0024 171.855 79.5526C172.873 79.1027 173.767 78.4103 174.536 77.4751C175.306 76.5518 175.951 75.3859 176.472 73.9773L188.048 42.7273H183.503L175.975 64.4602H175.691L168.162 42.7273H163.617L173.702 70.142L172.921 72.2727C172.412 73.6577 171.849 74.6579 171.234 75.2734C170.63 75.9008 169.938 76.25 169.156 76.321C168.375 76.392 167.476 76.2973 166.458 76.0369L165.392 79.7301C165.605 79.8366 165.99 79.9432 166.546 80.0497ZM193.579 42.7273V70H197.77V52.9545C197.77 51.617 198.054 50.4392 198.622 49.4212C199.202 48.3913 199.96 47.5864 200.895 47.0064C201.842 46.4264 202.86 46.1364 203.949 46.1364C205.535 46.1364 206.831 46.6158 207.837 47.5746C208.843 48.5215 209.346 49.7704 209.346 51.321V70H213.608V52.2443C213.608 50.4806 214.135 49.0246 215.188 47.8764C216.242 46.7164 217.727 46.1364 219.645 46.1364C221.136 46.1364 222.432 46.5684 223.533 47.4325C224.634 48.2966 225.184 49.7348 225.184 51.7472V70H229.375V51.7472C229.375 48.5393 228.599 46.1778 227.049 44.6626C225.498 43.1357 223.504 42.3722 221.065 42.3722C219.112 42.3722 217.437 42.7924 216.04 43.6328C214.644 44.4614 213.596 45.58 212.898 46.9886H212.613C211.939 45.5327 210.998 44.4022 209.79 43.5973C208.595 42.7805 207.097 42.3722 205.298 42.3722C203.523 42.3722 202.001 42.7805 200.735 43.5973C199.468 44.4022 198.551 45.5327 197.983 46.9886H197.628V42.7273H193.579ZM237.036 42.7273V70H241.227V52.9545C241.227 51.617 241.511 50.4392 242.079 49.4212C242.659 48.3913 243.417 47.5864 244.352 47.0064C245.299 46.4264 246.317 46.1364 247.406 46.1364C248.992 46.1364 250.288 46.6158 251.294 47.5746C252.3 48.5215 252.803 49.7704 252.803 51.321V70H257.065V52.2443C257.065 50.4806 257.592 49.0246 258.645 47.8764C259.699 46.7164 261.184 46.1364 263.102 46.1364C264.593 46.1364 265.889 46.5684 266.99 47.4325C268.091 48.2966 268.642 49.7348 268.642 51.7472V70H272.832V51.7472C272.832 48.5393 272.057 46.1778 270.506 44.6626C268.955 43.1357 266.961 42.3722 264.522 42.3722C262.569 42.3722 260.894 42.7924 259.497 43.6328C258.101 44.4614 257.053 45.58 256.355 46.9886H256.07C255.396 45.5327 254.455 44.4022 253.247 43.5973C252.052 42.7805 250.554 42.3722 248.755 42.3722C246.98 42.3722 245.459 42.7805 244.192 43.5973C242.925 44.4022 242.008 45.5327 241.44 46.9886H241.085V42.7273H237.036ZM285.128 68.8281C287.033 69.9882 289.3 70.5682 291.928 70.5682C293.775 70.5682 295.438 70.2841 296.917 69.7159C298.397 69.1359 299.64 68.331 300.646 67.3011C301.652 66.2595 302.368 65.0521 302.795 63.679L298.746 62.5426C298.391 63.4896 297.888 64.2827 297.237 64.9219C296.586 65.5492 295.811 66.0227 294.911 66.3423C294.023 66.6501 293.029 66.804 291.928 66.804C290.235 66.804 288.75 66.437 287.471 65.7031C286.193 64.9574 285.193 63.8743 284.471 62.4538C283.827 61.1551 283.475 59.5986 283.415 57.7841H303.221V56.0085C303.221 53.4635 302.883 51.321 302.209 49.581C301.534 47.8409 300.628 46.4441 299.492 45.3906C298.356 44.3253 297.095 43.5559 295.71 43.0824C294.325 42.6089 292.922 42.3722 291.502 42.3722C289.04 42.3722 286.885 42.9759 285.039 44.1832C283.204 45.3788 281.772 47.0478 280.742 49.1903C279.724 51.321 279.215 53.7831 279.215 56.5767C279.215 59.3703 279.724 61.8205 280.742 63.9276C281.772 66.0227 283.234 67.6562 285.128 68.8281ZM283.425 54.1619C283.505 52.8968 283.824 51.7013 284.382 50.5753C285.033 49.2614 285.962 48.196 287.17 47.3793C288.389 46.5507 289.833 46.1364 291.502 46.1364C293.017 46.1364 294.331 46.4856 295.444 47.1839C296.568 47.8823 297.432 48.8352 298.036 50.0426C298.652 51.25 298.959 52.6231 298.959 54.1619H283.425ZM321.456 46.2784V42.7273H315.632V36.1932H311.442V42.7273H307.322V46.2784H311.442V63.3239C311.442 64.91 311.809 66.224 312.542 67.2656C313.288 68.3073 314.223 69.0826 315.348 69.5916C316.484 70.1006 317.644 70.3551 318.828 70.3551C319.609 70.3551 320.254 70.2959 320.763 70.1776C321.272 70.071 321.669 69.9645 321.953 69.858L321.101 66.0938L320.39 66.2358C320.095 66.2831 319.716 66.3068 319.254 66.3068C318.639 66.3068 318.053 66.2121 317.496 66.0227C316.952 65.8215 316.502 65.4309 316.147 64.8509C315.804 64.259 315.632 63.3712 315.632 62.1875V46.2784H321.456ZM327.759 42.7273V70H331.949V52.7415C331.949 51.5104 332.245 50.4155 332.837 49.4567C333.441 48.486 334.258 47.7285 335.287 47.1839C336.329 46.6276 337.513 46.3494 338.839 46.3494C339.395 46.3494 339.922 46.3909 340.419 46.4737C340.928 46.5447 341.253 46.598 341.395 46.6335V42.3722C341.159 42.3485 340.809 42.3307 340.348 42.3189C339.886 42.3071 339.501 42.3011 339.194 42.3011C337.56 42.3011 336.092 42.7214 334.79 43.5618C333.488 44.4022 332.589 45.4972 332.091 46.8466H331.807V42.7273H327.759ZM346.363 42.7273V70H350.553V42.7273H346.363ZM346.38 37.3473C346.972 37.9036 347.676 38.1818 348.493 38.1818C349.31 38.1818 350.008 37.9036 350.588 37.3473C351.18 36.791 351.476 36.1222 351.476 35.3409C351.476 34.5597 351.18 33.8909 350.588 33.3345C350.008 32.7782 349.31 32.5 348.493 32.5C347.676 32.5 346.972 32.7782 346.38 33.3345C345.8 33.8909 345.51 34.5597 345.51 35.3409C345.51 36.1222 345.8 36.791 346.38 37.3473ZM362.702 68.7571C364.549 69.9645 366.751 70.5682 369.307 70.5682C371.32 70.5682 373.083 70.1953 374.599 69.4496C376.126 68.692 377.351 67.674 378.274 66.3956C379.209 65.1054 379.795 63.6553 380.032 62.0455H375.841C375.581 63.0398 375.143 63.892 374.528 64.6023C373.912 65.3125 373.16 65.857 372.273 66.2358C371.385 66.6146 370.396 66.804 369.307 66.804C367.65 66.804 366.206 66.3719 364.975 65.5078C363.756 64.6437 362.809 63.4304 362.134 61.8679C361.471 60.3054 361.14 58.4706 361.14 56.3636C361.14 54.304 361.477 52.5107 362.152 50.9837C362.838 49.4448 363.791 48.2552 365.01 47.4148C366.242 46.5625 367.674 46.1364 369.307 46.1364C371.154 46.1364 372.622 46.6217 373.711 47.5923C374.812 48.5511 375.522 49.652 375.841 50.8949H380.032C379.795 49.1903 379.185 47.6989 378.203 46.4205C377.22 45.142 375.96 44.1477 374.421 43.4375C372.882 42.7273 371.154 42.3722 369.236 42.3722C366.774 42.3722 364.62 42.9759 362.773 44.1832C360.939 45.3788 359.506 47.0419 358.476 49.1726C357.458 51.2914 356.949 53.7358 356.949 56.5057C356.949 59.2282 357.447 61.6489 358.441 63.7678C359.435 65.8866 360.856 67.5497 362.702 68.7571ZM432.979 68.8281C434.885 69.9882 437.152 70.5682 439.78 70.5682C441.626 70.5682 443.289 70.2841 444.769 69.7159C446.249 69.1359 447.492 68.331 448.498 67.3011C449.504 66.2595 450.22 65.0521 450.646 63.679L446.598 62.5426C446.243 63.4896 445.74 64.2827 445.089 64.9219C444.438 65.5492 443.662 66.0227 442.763 66.3423C441.875 66.6501 440.88 66.804 439.78 66.804C438.087 66.804 436.601 66.437 435.323 65.7031C434.045 64.9574 433.044 63.8743 432.322 62.4538C431.678 61.1551 431.326 59.5986 431.266 57.7841H451.072V56.0085C451.072 53.4635 450.735 51.321 450.06 49.581C449.385 47.8409 448.48 46.4441 447.344 45.3906C446.207 44.3253 444.947 43.5559 443.562 43.0824C442.177 42.6089 440.774 42.3722 439.354 42.3722C436.891 42.3722 434.737 42.9759 432.89 44.1832C431.056 45.3788 429.623 47.0478 428.594 49.1903C427.576 51.321 427.067 53.7831 427.067 56.5767C427.067 59.3703 427.576 61.8205 428.594 63.9276C429.623 66.0227 431.085 67.6562 432.979 68.8281ZM431.277 54.1619C431.357 52.8968 431.676 51.7013 432.233 50.5753C432.885 49.2614 433.814 48.196 435.021 47.3793C436.24 46.5507 437.684 46.1364 439.354 46.1364C440.869 46.1364 442.183 46.4856 443.295 47.1839C444.42 47.8823 445.284 48.8352 445.888 50.0426C446.503 51.25 446.811 52.6231 446.811 54.1619H431.277ZM466.373 53.8778L459.839 42.7273H455.01L463.674 56.3636L455.01 70H459.839L466.373 59.4176L472.907 70H477.737L468.93 56.3636L477.737 42.7273H472.907L466.373 53.8778ZM495.577 46.2784V42.7273H489.753V36.1932H485.563V42.7273H481.443V46.2784H485.563V63.3239C485.563 64.91 485.93 66.224 486.664 67.2656C487.409 68.3073 488.344 69.0826 489.469 69.5916C490.605 70.1006 491.765 70.3551 492.949 70.3551C493.73 70.3551 494.375 70.2959 494.884 70.1776C495.393 70.071 495.79 69.9645 496.074 69.858L495.222 66.0938L494.512 66.2358C494.216 66.2831 493.837 66.3068 493.375 66.3068C492.76 66.3068 492.174 66.2121 491.617 66.0227C491.073 65.8215 490.623 65.4309 490.268 64.8509C489.925 64.259 489.753 63.3712 489.753 62.1875V46.2784H495.577Z" fill="white"/>
</svg>
