<svg width="449" height="62" viewBox="0 0 449 62" fill="none" xmlns="http://www.w3.org/2000/svg">
<line x1="19.1206" y1="57.8694" x2="35.6552" y2="12.441" stroke="#B8CCFF" stroke-width="4"/>
<path d="M10.4724 42.8612L58.8164 42.8612" stroke="#B8CCFF" stroke-width="4"/>
<line x1="33.3794" y1="11.566" x2="49.914" y2="56.9944" stroke="#B8CCFF" stroke-width="4"/>
<rect x="32.5197" y="59.5275" width="56.7716" height="4.96063" transform="rotate(-90 32.5197 59.5275)" fill="#B8CCFF"/>
<ellipse cx="4.13386" cy="10.748" rx="4.13386" ry="4.13386" fill="#F0F0F0"/>
<path d="M54.2677 57.1339C54.2677 59.4169 52.4169 61.2677 50.1339 61.2677C47.8508 61.2677 46 59.4169 46 57.1339C46 54.8508 47.8508 53 50.1339 53C52.4169 53 54.2677 54.8508 54.2677 57.1339Z" fill="#F0F0F0"/>
<ellipse cx="35" cy="57.0472" rx="4.13386" ry="4.13386" fill="#F0F0F0"/>
<ellipse cx="35" cy="4.13386" rx="4.13386" ry="4.13386" fill="#F0F0F0"/>
<ellipse cx="9.38386" cy="43.5089" rx="4.13386" ry="4.13386" fill="#F0F0F0"/>
<path d="M63.9658 43.3125C63.9658 45.5956 62.115 47.4464 59.832 47.4464C57.5489 47.4464 55.6981 45.5956 55.6981 43.3125C55.6981 41.0294 57.5489 39.1786 59.832 39.1786C62.115 39.1786 63.9658 41.0294 63.9658 43.3125Z" fill="#F0F0F0"/>
<ellipse cx="18.1339" cy="57.1339" rx="4.13386" ry="4.13386" fill="#F0F0F0"/>
<ellipse cx="65.8661" cy="10.748" rx="4.13386" ry="4.13386" fill="#F0F0F0"/>
<circle cx="355" cy="13" r="4" fill="#B8CCFF"/>
<circle cx="355" cy="13" r="4" fill="#B8CCFF"/>
<circle cx="355" cy="13" r="4" fill="#F0F0F0"/>
<circle cx="388" cy="13" r="4" fill="#B8CCFF"/>
<circle cx="388" cy="13" r="4" fill="#B8CCFF"/>
<circle cx="388" cy="13" r="4" fill="#F0F0F0"/>
<circle cx="371" cy="48" r="4" fill="#B8CCFF"/>
<circle cx="371" cy="48" r="4" fill="#B8CCFF"/>
<circle cx="371" cy="48" r="4" fill="#F0F0F0"/>
<path d="M97.5273 13.9668L84.8809 48H82.7812L96.1357 12.4531H97.7715L97.5273 13.9668ZM109.49 48L96.8682 13.9668L96.624 12.4531H98.2354L111.614 48H109.49ZM106.365 35.8174V37.6484H88.1279V35.8174H106.365ZM132.586 41.4326C132.586 40.6514 132.374 39.8783 131.951 39.1133C131.544 38.3483 130.787 37.6322 129.681 36.9648C128.59 36.2975 127.003 35.736 124.92 35.2803C123.439 34.9548 122.129 34.5967 120.989 34.2061C119.866 33.8154 118.922 33.3434 118.157 32.79C117.392 32.2204 116.814 31.5449 116.424 30.7637C116.049 29.9824 115.862 29.0465 115.862 27.9561C115.862 27.012 116.066 26.125 116.473 25.2949C116.88 24.4648 117.474 23.7406 118.255 23.1221C119.052 22.4873 120.005 21.9909 121.111 21.6328C122.218 21.2747 123.471 21.0957 124.871 21.0957C126.873 21.0957 128.582 21.4294 129.998 22.0967C131.43 22.7477 132.529 23.651 133.294 24.8066C134.059 25.946 134.441 27.2725 134.441 28.7861H132.488C132.488 27.7607 132.195 26.8005 131.609 25.9053C131.023 25.0101 130.161 24.2858 129.021 23.7324C127.898 23.1628 126.515 22.8779 124.871 22.8779C123.211 22.8779 121.86 23.1302 120.818 23.6348C119.777 24.1393 119.012 24.7822 118.523 25.5635C118.051 26.3285 117.815 27.1097 117.815 27.9072C117.815 28.542 117.905 29.1361 118.084 29.6895C118.279 30.2266 118.646 30.723 119.183 31.1787C119.72 31.6344 120.493 32.0739 121.502 32.4971C122.511 32.904 123.821 33.2865 125.433 33.6445C127.549 34.1165 129.274 34.6943 130.608 35.3779C131.943 36.0452 132.928 36.8672 133.562 37.8438C134.197 38.804 134.515 39.984 134.515 41.3838C134.515 42.4255 134.295 43.3857 133.855 44.2646C133.416 45.1273 132.781 45.876 131.951 46.5107C131.137 47.1455 130.145 47.6338 128.973 47.9756C127.801 48.3174 126.499 48.4883 125.066 48.4883C122.902 48.4883 121.062 48.1465 119.549 47.4629C118.051 46.763 116.912 45.8434 116.131 44.7041C115.366 43.5648 114.983 42.3359 114.983 41.0176H116.937C117.05 42.4661 117.522 43.6055 118.353 44.4355C119.199 45.2656 120.224 45.8516 121.429 46.1934C122.649 46.5352 123.862 46.7061 125.066 46.7061C126.71 46.7061 128.086 46.4538 129.192 45.9492C130.315 45.4284 131.162 44.7692 131.731 43.9717C132.301 43.1579 132.586 42.3115 132.586 41.4326ZM149.603 45.4121L158.392 21.584H160.516L148.992 52.3213C148.781 52.9072 148.512 53.5583 148.187 54.2744C147.861 55.0068 147.438 55.7067 146.917 56.374C146.396 57.0413 145.721 57.5866 144.891 58.0098C144.077 58.4492 143.068 58.6689 141.863 58.6689C141.587 58.6689 141.22 58.6364 140.765 58.5713C140.325 58.5225 140 58.4574 139.788 58.376L139.764 56.667C139.992 56.7158 140.293 56.7565 140.667 56.7891C141.041 56.8379 141.302 56.8623 141.448 56.8623C142.522 56.8623 143.418 56.6507 144.134 56.2275C144.866 55.8206 145.477 55.2347 145.965 54.4697C146.453 53.721 146.884 52.834 147.259 51.8086L149.603 45.4121ZM140.545 21.584L149.92 45.583L150.481 47.585L148.992 48.5127L138.421 21.584H140.545ZM167.083 27.1748V48H165.13V21.584H167.034L167.083 27.1748ZM166.766 32.7656L165.789 31.6426C165.919 30.2428 166.245 28.9082 166.766 27.6387C167.303 26.3691 168.011 25.2461 168.89 24.2695C169.785 23.293 170.835 22.5199 172.039 21.9502C173.26 21.3805 174.619 21.0957 176.116 21.0957C177.435 21.0957 178.615 21.2747 179.656 21.6328C180.714 21.9746 181.609 22.5199 182.342 23.2686C183.074 24.001 183.636 24.9613 184.026 26.1494C184.417 27.3376 184.612 28.7617 184.612 30.4219V48H182.659V30.4707C182.659 28.485 182.366 26.9469 181.78 25.8564C181.194 24.766 180.381 24.001 179.339 23.5615C178.297 23.1058 177.101 22.8779 175.75 22.8779C174.155 22.8779 172.796 23.2279 171.673 23.9277C170.55 24.6113 169.63 25.4821 168.914 26.54C168.214 27.5817 167.693 28.6641 167.352 29.7871C167.01 30.9102 166.814 31.903 166.766 32.7656ZM184.588 30.5928L183.27 30.1289C183.4 28.9408 183.733 27.8096 184.271 26.7354C184.824 25.6449 185.548 24.6846 186.443 23.8545C187.339 23.0081 188.388 22.3408 189.593 21.8525C190.813 21.348 192.164 21.0957 193.646 21.0957C194.996 21.0957 196.201 21.2829 197.259 21.6572C198.333 22.0153 199.228 22.5931 199.944 23.3906C200.677 24.1719 201.238 25.181 201.629 26.418C202.02 27.6387 202.215 29.1198 202.215 30.8613V48H200.262V30.8369C200.262 28.7536 199.969 27.1341 199.383 25.9785C198.797 24.8229 197.983 24.0173 196.941 23.5615C195.9 23.0895 194.695 22.8617 193.328 22.8779C191.88 22.8942 190.618 23.1628 189.544 23.6836C188.47 24.2044 187.575 24.8636 186.858 25.6611C186.142 26.4587 185.597 27.2969 185.223 28.1758C184.848 29.0384 184.637 29.8441 184.588 30.5928ZM211.712 27.1748V48H209.759V21.584H211.663L211.712 27.1748ZM211.395 32.7656L210.418 31.6426C210.548 30.2428 210.874 28.9082 211.395 27.6387C211.932 26.3691 212.64 25.2461 213.519 24.2695C214.414 23.293 215.464 22.5199 216.668 21.9502C217.889 21.3805 219.248 21.0957 220.745 21.0957C222.063 21.0957 223.243 21.2747 224.285 21.6328C225.343 21.9746 226.238 22.5199 226.971 23.2686C227.703 24.001 228.265 24.9613 228.655 26.1494C229.046 27.3376 229.241 28.7617 229.241 30.4219V48H227.288V30.4707C227.288 28.485 226.995 26.9469 226.409 25.8564C225.823 24.766 225.009 24.001 223.968 23.5615C222.926 23.1058 221.73 22.8779 220.379 22.8779C218.784 22.8779 217.425 23.2279 216.302 23.9277C215.179 24.6113 214.259 25.4821 213.543 26.54C212.843 27.5817 212.322 28.6641 211.98 29.7871C211.639 30.9102 211.443 31.903 211.395 32.7656ZM229.217 30.5928L227.898 30.1289C228.029 28.9408 228.362 27.8096 228.899 26.7354C229.453 25.6449 230.177 24.6846 231.072 23.8545C231.967 23.0081 233.017 22.3408 234.222 21.8525C235.442 21.348 236.793 21.0957 238.274 21.0957C239.625 21.0957 240.83 21.2829 241.888 21.6572C242.962 22.0153 243.857 22.5931 244.573 23.3906C245.306 24.1719 245.867 25.181 246.258 26.418C246.648 27.6387 246.844 29.1198 246.844 30.8613V48H244.891V30.8369C244.891 28.7536 244.598 27.1341 244.012 25.9785C243.426 24.8229 242.612 24.0173 241.57 23.5615C240.529 23.0895 239.324 22.8617 237.957 22.8779C236.508 22.8942 235.247 23.1628 234.173 23.6836C233.099 24.2044 232.203 24.8636 231.487 25.6611C230.771 26.4587 230.226 27.2969 229.852 28.1758C229.477 29.0384 229.266 29.8441 229.217 30.5928ZM264.397 48.4883C262.737 48.4883 261.199 48.1709 259.783 47.5361C258.367 46.8851 257.13 45.9818 256.072 44.8262C255.014 43.6543 254.184 42.2708 253.582 40.6758C252.996 39.0807 252.703 37.3311 252.703 35.4268V34.3525C252.703 32.3831 252.996 30.5928 253.582 28.9814C254.184 27.3538 254.998 25.9541 256.023 24.7822C257.049 23.5941 258.229 22.6826 259.563 22.0479C260.914 21.4131 262.355 21.0957 263.885 21.0957C265.431 21.0957 266.831 21.3805 268.084 21.9502C269.337 22.5199 270.411 23.3174 271.307 24.3428C272.202 25.3682 272.885 26.5889 273.357 28.0049C273.829 29.4209 274.065 30.9834 274.065 32.6924V34.3281H253.924V32.5459H272.137V32.2285C272.12 30.5684 271.779 29.0303 271.111 27.6143C270.46 26.1982 269.524 25.0589 268.304 24.1963C267.083 23.3174 265.61 22.8779 263.885 22.8779C262.501 22.8779 261.24 23.1709 260.101 23.7568C258.978 24.3428 258.009 25.1566 257.195 26.1982C256.382 27.2236 255.755 28.4362 255.315 29.8359C254.876 31.2194 254.656 32.7249 254.656 34.3525V35.4268C254.656 36.9893 254.9 38.4541 255.389 39.8213C255.877 41.1885 256.561 42.3929 257.439 43.4346C258.318 44.46 259.352 45.2656 260.54 45.8516C261.728 46.4375 263.03 46.7305 264.446 46.7305C265.976 46.7305 267.376 46.4619 268.646 45.9248C269.915 45.3877 271.071 44.4437 272.112 43.0928L273.382 44.0449C272.796 44.8913 272.088 45.6481 271.258 46.3154C270.428 46.9827 269.443 47.5117 268.304 47.9023C267.181 48.293 265.879 48.4883 264.397 48.4883ZM289.471 21.584V23.3418H276.824V21.584H289.471ZM281.707 14.6016H283.66V41.6279C283.66 43.0439 283.831 44.1182 284.173 44.8506C284.531 45.5667 284.995 46.055 285.564 46.3154C286.15 46.5596 286.777 46.6816 287.444 46.6816C287.916 46.6816 288.348 46.6572 288.738 46.6084C289.145 46.5596 289.552 46.5026 289.959 46.4375L290.13 48.1465C289.772 48.2604 289.308 48.3418 288.738 48.3906C288.169 48.4557 287.664 48.4883 287.225 48.4883C286.118 48.4883 285.149 48.2848 284.319 47.8779C283.489 47.471 282.846 46.7712 282.391 45.7783C281.935 44.7692 281.707 43.3857 281.707 41.6279V14.6016ZM297.942 26.0762V48H296.014V21.584H297.918L297.942 26.0762ZM308.001 21.3887L307.879 23.1465C307.586 23.0977 307.293 23.057 307 23.0244C306.707 22.9919 306.398 22.9756 306.072 22.9756C304.673 22.9756 303.444 23.2523 302.386 23.8057C301.344 24.359 300.465 25.1159 299.749 26.0762C299.049 27.0365 298.52 28.1514 298.162 29.4209C297.804 30.6904 297.617 32.0495 297.601 33.498L296.648 33.6934C296.648 31.8867 296.836 30.2184 297.21 28.6885C297.601 27.1585 298.187 25.8239 298.968 24.6846C299.749 23.5452 300.734 22.6663 301.922 22.0479C303.11 21.4131 304.51 21.0957 306.121 21.0957C306.512 21.0957 306.87 21.1283 307.195 21.1934C307.521 21.2422 307.789 21.3073 308.001 21.3887ZM315.081 21.584V48H313.128V21.584H315.081ZM312.518 13.5762C312.518 13.1367 312.664 12.7624 312.957 12.4531C313.266 12.1276 313.657 11.9648 314.129 11.9648C314.585 11.9648 314.967 12.1276 315.276 12.4531C315.586 12.7624 315.74 13.1367 315.74 13.5762C315.74 14.0156 315.586 14.39 315.276 14.6992C314.967 14.9922 314.585 15.1387 314.129 15.1387C313.657 15.1387 313.266 14.9922 312.957 14.6992C312.664 14.39 312.518 14.0156 312.518 13.5762ZM332.781 46.7061C334.1 46.7061 335.345 46.4619 336.517 45.9736C337.705 45.4854 338.689 44.7448 339.471 43.752C340.268 42.7428 340.716 41.4652 340.813 39.9189H342.718C342.636 41.6768 342.132 43.1986 341.204 44.4844C340.276 45.7539 339.08 46.7386 337.615 47.4385C336.15 48.1383 334.539 48.4883 332.781 48.4883C331.023 48.4883 329.453 48.1628 328.069 47.5117C326.702 46.8607 325.555 45.9411 324.627 44.7529C323.699 43.5648 322.991 42.1732 322.503 40.5781C322.031 38.9668 321.795 37.209 321.795 35.3047V34.2793C321.795 32.375 322.031 30.6253 322.503 29.0303C322.991 27.4189 323.699 26.0192 324.627 24.8311C325.555 23.6429 326.694 22.7233 328.045 22.0723C329.412 21.4212 330.975 21.0957 332.732 21.0957C334.507 21.0957 336.134 21.4619 337.615 22.1943C339.096 22.9105 340.293 23.9603 341.204 25.3438C342.132 26.7109 342.636 28.3874 342.718 30.373H340.813C340.732 28.7454 340.317 27.3783 339.568 26.2715C338.82 25.1647 337.843 24.3265 336.639 23.7568C335.434 23.1709 334.132 22.8779 332.732 22.8779C331.17 22.8779 329.819 23.179 328.68 23.7812C327.54 24.3835 326.604 25.2135 325.872 26.2715C325.14 27.3132 324.603 28.5257 324.261 29.9092C323.919 31.2764 323.748 32.7331 323.748 34.2793V35.3047C323.748 36.8672 323.919 38.3402 324.261 39.7236C324.603 41.0908 325.14 42.2952 325.872 43.3369C326.604 44.3786 327.54 45.2005 328.68 45.8027C329.835 46.4049 331.202 46.7061 332.781 46.7061ZM371.99 12.4531V48H370.037V12.4531H371.99ZM384.637 12.4531V14.2598H357.391V12.4531H384.637ZM397.356 48.4883C395.696 48.4883 394.158 48.1709 392.742 47.5361C391.326 46.8851 390.089 45.9818 389.031 44.8262C387.973 43.6543 387.143 42.2708 386.541 40.6758C385.955 39.0807 385.662 37.3311 385.662 35.4268V34.3525C385.662 32.3831 385.955 30.5928 386.541 28.9814C387.143 27.3538 387.957 25.9541 388.982 24.7822C390.008 23.5941 391.188 22.6826 392.522 22.0479C393.873 21.4131 395.314 21.0957 396.844 21.0957C398.39 21.0957 399.79 21.3805 401.043 21.9502C402.296 22.5199 403.37 23.3174 404.266 24.3428C405.161 25.3682 405.844 26.5889 406.316 28.0049C406.788 29.4209 407.024 30.9834 407.024 32.6924V34.3281H386.883V32.5459H405.096V32.2285C405.079 30.5684 404.738 29.0303 404.07 27.6143C403.419 26.1982 402.483 25.0589 401.263 24.1963C400.042 23.3174 398.569 22.8779 396.844 22.8779C395.46 22.8779 394.199 23.1709 393.06 23.7568C391.937 24.3428 390.968 25.1566 390.154 26.1982C389.34 27.2236 388.714 28.4362 388.274 29.8359C387.835 31.2194 387.615 32.7249 387.615 34.3525V35.4268C387.615 36.9893 387.859 38.4541 388.348 39.8213C388.836 41.1885 389.52 42.3929 390.398 43.4346C391.277 44.46 392.311 45.2656 393.499 45.8516C394.687 46.4375 395.989 46.7305 397.405 46.7305C398.935 46.7305 400.335 46.4619 401.604 45.9248C402.874 45.3877 404.03 44.4437 405.071 43.0928L406.341 44.0449C405.755 44.8913 405.047 45.6481 404.217 46.3154C403.387 46.9827 402.402 47.5117 401.263 47.9023C400.14 48.293 398.838 48.4883 397.356 48.4883ZM413.079 21.584L421.014 32.8877L428.924 21.584H431.292L422.137 34.4746L431.756 48H429.412L421.014 36.0859L412.615 48H410.271L419.866 34.4746L410.735 21.584H413.079ZM446.502 21.584V23.3418H433.855V21.584H446.502ZM438.738 14.6016H440.691V41.6279C440.691 43.0439 440.862 44.1182 441.204 44.8506C441.562 45.5667 442.026 46.055 442.596 46.3154C443.182 46.5596 443.808 46.6816 444.476 46.6816C444.948 46.6816 445.379 46.6572 445.77 46.6084C446.176 46.5596 446.583 46.5026 446.99 46.4375L447.161 48.1465C446.803 48.2604 446.339 48.3418 445.77 48.3906C445.2 48.4557 444.695 48.4883 444.256 48.4883C443.149 48.4883 442.181 48.2848 441.351 47.8779C440.521 47.471 439.878 46.7712 439.422 45.7783C438.966 44.7692 438.738 43.3857 438.738 41.6279V14.6016Z" fill="#B8CCFF"/>
<circle cx="110" cy="50" r="4" fill="#B8CCFF"/>
<circle cx="110" cy="50" r="4" fill="#B8CCFF"/>
<circle cx="110" cy="50" r="4" fill="#F0F0F0"/>
<circle cx="97" cy="12" r="4" fill="#B8CCFF"/>
<circle cx="97" cy="12" r="4" fill="#B8CCFF"/>
<circle cx="97" cy="12" r="4" fill="#F0F0F0"/>
<circle cx="80" cy="37" r="4" fill="#B8CCFF"/>
<circle cx="80" cy="37" r="4" fill="#B8CCFF"/>
<circle cx="80" cy="37" r="4" fill="#F0F0F0"/>
<circle cx="114" cy="37" r="4" fill="#B8CCFF"/>
<circle cx="114" cy="37" r="4" fill="#B8CCFF"/>
<circle cx="114" cy="37" r="4" fill="#F0F0F0"/>
<circle cx="84" cy="50" r="4" fill="#B8CCFF"/>
<circle cx="84" cy="50" r="4" fill="#B8CCFF"/>
<circle cx="84" cy="50" r="4" fill="#F0F0F0"/>
<line x1="84" y1="37" x2="115" y2="37" stroke="#B8CCFF" stroke-width="2"/>
<line x1="5" y1="11" x2="66" y2="11" stroke="#B8CCFF" stroke-width="4"/>
</svg>
